
<?xml version="1.0" standalone="no"?>
<!DOCTYPE svg PUBLIC "-//W3C//DTD SVG 20010904//EN"
 "http://www.w3.org/TR/2001/REC-SVG-20010904/DTD/svg10.dtd">
<svg version="1.0" xmlns="http://www.w3.org/2000/svg"
 width="400" height="140" viewBox="0 0 403.000000 269.000000"
 preserveAspectRatio="xMidYMid meet">

<g transform="translate(0.000000,269.000000) scale(0.100000,-0.100000)"
fill="#000000" stroke="none">
<path d="M1930 1943 c-441 -24 -828 -152 -1011 -333 -83 -82 -113 -143 -112
-225 3 -287 502 -505 1156 -505 380 0 706 64 958 189 156 77 272 186 305 284
20 59 15 147 -11 197 -42 81 -174 190 -293 242 -51 22 -181 68 -193 68 -4 0
-29 -20 -55 -44 -124 -110 -262 -176 -373 -176 l-48 0 10 39 c17 63 -2 105
-88 194 l-75 77 -58 -2 c-31 -1 -82 -3 -112 -5z m-604 -380 c64 -82 121 -149
125 -151 5 -2 9 64 9 147 l0 151 55 0 55 0 0 -270 0 -270 -27 0 c-30 0 -22 -8
-194 210 l-74 94 -3 -152 -3 -152 -54 0 -55 0 0 270 0 270 24 0 c20 0 49 -30
142 -147z m444 97 l0 -50 -55 0 -55 0 0 50 0 50 55 0 55 0 0 -50z m200 -45 l0
-95 40 20 c48 25 126 27 159 4 42 -30 51 -72 51 -229 l0 -145 -55 0 -55 0 0
129 c0 123 -1 131 -22 145 -28 20 -51 20 -88 1 l-30 -16 0 -129 0 -130 -55 0
-55 0 0 270 0 270 55 0 55 0 0 -95z m870 -119 l0 -213 25 -27 c14 -15 25 -29
25 -31 0 -2 -18 -18 -41 -35 l-40 -33 -25 24 c-52 48 -54 62 -54 304 l0 225
55 0 55 0 0 -214z m-256 44 c42 -25 86 -109 86 -162 l0 -38 -140 0 -140 0 11
-27 c21 -55 75 -71 162 -48 32 8 60 15 62 15 3 0 5 -20 5 -45 0 -40 -3 -47
-27 -56 -53 -21 -150 -23 -198 -5 -132 51 -167 234 -65 336 20 20 51 41 70 48
49 16 134 7 174 -18z m-814 -175 l0 -195 -55 0 -55 0 0 188 c0 104 3 192 7
195 3 4 28 7 55 7 l48 0 0 -195z"/>
<path d="M2444 1470 c-24 -10 -54 -47 -54 -67 0 -10 24 -13 90 -13 100 0 109
7 68 54 -25 29 -72 40 -104 26z"/>
<path d="M800 660 c0 -7 413 -10 1220 -10 807 0 1220 3 1220 10 0 7 -413 10
-1220 10 -807 0 -1220 -3 -1220 -10z"/>
<path d="M1240 506 l0 -74 37 1 c29 2 40 8 49 26 18 36 3 65 -35 69 -25 3 -31
8 -31 28 0 13 -4 24 -10 24 -6 0 -10 -31 -10 -74z m70 -6 c11 -20 -1 -60 -18
-60 -24 0 -43 55 -25 73 12 13 32 7 43 -13z"/>
<path d="M2586 571 c-4 -5 -2 -12 3 -15 5 -4 12 -2 15 3 4 5 2 12 -3 15 -5 4
-12 2 -15 -3z"/>
<path d="M798 564 c-5 -4 -8 -36 -8 -71 l0 -63 40 0 c22 0 40 5 40 10 0 6 -13
10 -30 10 -29 0 -29 1 -32 61 -2 33 -6 57 -10 53z"/>
<path d="M2148 538 c-10 -10 -13 -18 -8 -18 6 0 10 -10 10 -22 0 -45 12 -68
34 -68 19 1 19 2 4 11 -11 6 -18 22 -18 39 0 17 7 33 18 39 15 9 15 10 0 11
-9 0 -18 6 -20 13 -2 9 -8 8 -20 -5z"/>
<path d="M1020 522 c0 -5 10 -8 21 -8 12 1 24 -5 26 -11 3 -8 -5 -13 -20 -13
-13 0 -30 -7 -37 -15 -19 -23 5 -45 46 -43 31 1 34 4 34 34 0 50 -9 64 -41 64
-16 0 -29 -4 -29 -8z m50 -51 c0 -17 -25 -30 -40 -20 -13 8 -13 10 0 19 19 12
40 13 40 1z"/>
<path d="M1478 505 c-9 -19 -8 -29 6 -50 22 -33 60 -33 82 0 15 23 15 27 0 50
-23 35 -72 35 -88 0z m72 -4 c12 -23 5 -47 -17 -55 -33 -13 -57 36 -31 62 18
18 36 15 48 -7z"/>
<path d="M1720 480 c0 -27 5 -50 10 -50 6 0 10 15 10 34 0 25 7 39 22 50 22
16 22 16 -10 16 -32 0 -32 0 -32 -50z"/>
<path d="M1925 521 c-3 -6 6 -9 19 -8 35 3 32 -16 -5 -26 -24 -6 -30 -13 -27
-30 2 -18 10 -22 41 -23 30 -1 38 3 43 20 9 36 -12 76 -40 76 -14 0 -27 -4
-31 -9z m49 -50 c9 -15 -23 -36 -36 -23 -5 5 -7 15 -4 21 9 13 33 14 40 2z"/>
<path d="M2351 516 c-16 -19 -10 -66 10 -79 44 -28 95 25 69 72 -13 25 -61 29
-79 7z m57 -8 c27 -27 2 -75 -32 -62 -16 6 -23 54 -9 67 10 11 28 8 41 -5z"/>
<path d="M2593 480 c0 -30 2 -43 4 -27 2 15 2 39 0 55 -2 15 -4 2 -4 -28z"/>
<path d="M2760 480 c0 -27 5 -50 10 -50 6 0 10 18 10 40 0 27 6 42 18 49 14 9
13 10 -10 11 -27 0 -28 -2 -28 -50z"/>
<path d="M2962 518 c-7 -7 -12 -24 -12 -38 0 -14 5 -31 12 -38 15 -15 68 -16
68 -1 0 6 -7 8 -16 5 -17 -6 -44 9 -44 25 0 5 16 9 35 9 22 0 35 5 35 13 0 19
-21 37 -45 37 -12 0 -26 -5 -33 -12z m56 -15 c2 -8 -6 -13 -22 -13 -25 0 -33
10 -19 24 10 10 36 3 41 -11z"/>
<path d="M3176 515 c-5 -15 13 -40 36 -47 6 -2 8 -10 4 -17 -5 -7 -14 -10 -22
-7 -8 3 -14 1 -14 -4 0 -18 48 -11 55 7 4 13 -2 25 -21 40 l-28 22 24 10 25
10 -26 0 c-15 1 -29 -6 -33 -14z"/>
</g>
</svg>
